<svg width="18" height="10" viewBox="0 0 18 10" fill="none" xmlns="http://www.w3.org/2000/svg">
<path d="M17.031 1.43729L9.53104 8.93729C9.46139 9.00702 9.37867 9.06234 9.28762 9.10009C9.19657 9.13783 9.09898 9.15726 9.00042 9.15726C8.90186 9.15726 8.80426 9.13783 8.71321 9.10009C8.62216 9.06234 8.53945 9.00702 8.46979 8.93729L0.969792 1.43729C0.829062 1.29656 0.75 1.10569 0.75 0.906667C0.75 0.707644 0.829062 0.516772 0.969792 0.376042C1.11052 0.235311 1.30139 0.15625 1.50042 0.15625C1.69944 0.15625 1.89031 0.235311 2.03104 0.376042L9.00042 7.34635L15.9698 0.376042C16.0395 0.306359 16.1222 0.251084 16.2132 0.213372C16.3043 0.17566 16.4019 0.15625 16.5004 0.15625C16.599 0.15625 16.6965 0.17566 16.7876 0.213372C16.8786 0.251084 16.9614 0.306359 17.031 0.376042C17.1007 0.445724 17.156 0.52845 17.1937 0.619495C17.2314 0.710539 17.2508 0.808121 17.2508 0.906667C17.2508 1.00521 17.2314 1.10279 17.1937 1.19384C17.156 1.28488 17.1007 1.36761 17.031 1.43729Z" fill="#2A5987"/>
</svg>
